# xmcd
#
# Track frame offsets: 
#        150
#        19692
#        41120
#        45409
#        68704
#        84630
#        90567
#        117155
#        136343
#        155066
#        159361
#        180568
#
# Disc length: 2831 seconds
#
# Revision: 0
# Processed by: cddbd v1.5.2PL0 Copyright (c) Steve Scherf et al.
# Submitted via: ExactAudioCopyFreeDBPlugin 1.0
#
DISCID=920b0d0c
DTITLE=近藤房之助 - 黒くなれ
DYEAR=2011
DGENRE=
TTITLE0=Get It Up For Love with ROOT SOUL
TTITLE1=Eat The Rich with Mountain Mocha Kilimanjaro
TTITLE2=cofee skit
TTITLE3=The Way It Is with 45trio
TTITLE4=Ain't No Mountain High Enough with ズクナシ
TTITLE5=Zukunaskit
TTITLE6=Right Place, Wrong Time with Mountain Mocha Kilimanjaro
TTITLE7=Who's Making Love with オーサカ=モノレール
TTITLE8=War with オーサカ=モノレール
TTITLE9=station skit
TTITLE10=Party Down with 45trio
TTITLE11=イチカバチカーノ with Kingdom☆Afrocks
EXTD=
EXTT0=
EXTT1=
EXTT2=
EXTT3=
EXTT4=
EXTT5=
EXTT6=
EXTT7=
EXTT8=
EXTT9=
EXTT10=
EXTT11=
PLAYORDER=
